<svg xmlns="http://www.w3.org/2000/svg" xmlns:xlink="http://www.w3.org/1999/xlink" viewBox="0 0 195 82"><text y="75" font-size="83" fill-opacity="0" font-family="Trebuchet" letter-spacing="-12">W3C</text><text x="180" y="75" font-size="83" fill-opacity="0" font-family="Trebuchet" font-weight="bold">SVG</text><defs><g id="c" fill="#005A9C"><path d="M5.5 31.3A18.3 18.3 0 0 1 18.5 0c10 0 18.3 8.2 18.3 18.4H26a7.6 7.6 0 1 0-13 5.3c1.4 1.4 2.6 1.8 5.4 2.3 5.1.5 9.7 2 13 5.3a18.3 18.3 0 0 1-13 31.3A18.3 18.3 0 0 1 .1 44.3H11a7.6 7.6 0 1 0 13-5.4c-1.5-1.4-3.4-1.8-5.5-2.2-4.9-.8-9.6-2-13-5.4zM73.5 0l-13 62.6H49.7L36.7 0h10.8l7.6 36.7L62.7 0h10.8zM91.8 26H110v18.3a18.3 18.3 0 0 1-36.6 0v-26a18.3 18.3 0 0 1 36.6 0H99.4a7.6 7.6 0 0 0-15.2 0v26a7.6 7.6 0 0 0 15.2 0v-7.6h-7.6V26z"/></g></defs><g shape-rendering="geometricPrecision" text-rendering="geometricPrecision" image-rendering="optimizeQuality"><g transform="matrix(.24 0 0 .24 0 8.4)"><g stroke-width="38" stroke="#000"><g id="b" transform="translate(150 150)"><path id="a" fill="#EDA921" d="M-84.1-15.9a22.4 22.4 0 1 0 0 31.8H84a22.4 22.4 0 1 0 0-31.8z"/><use xlink:href="#a" transform="rotate(45)"/><use xlink:href="#a" transform="rotate(90)"/><use xlink:href="#a" transform="rotate(135)"/></g></g><use xlink:href="#b"/></g><use xlink:href="#c" transform="matrix(1.08 0 0 1.08 70.2 10.8)"/></g></svg>